<svg id="visual" viewBox="0 0 900 600" width="900" height="600" xmlns="http://www.w3.org/2000/svg" xmlns:xlink="http://www.w3.org/1999/xlink" version="1.1"><path d="M0 438L18.8 439.8C37.7 441.7 75.3 445.3 112.8 451.7C150.3 458 187.7 467 225.2 477.7C262.7 488.3 300.3 500.7 337.8 505.5C375.3 510.3 412.7 507.7 450.2 505.3C487.7 503 525.3 501 562.8 489.7C600.3 478.3 637.7 457.7 675.2 447.2C712.7 436.7 750.3 436.3 787.8 442.7C825.3 449 862.7 462 881.3 468.5L900 475L900 601L881.3 601C862.7 601 825.3 601 787.8 601C750.3 601 712.7 601 675.2 601C637.7 601 600.3 601 562.8 601C525.3 601 487.7 601 450.2 601C412.7 601 375.3 601 337.8 601C300.3 601 262.7 601 225.2 601C187.7 601 150.3 601 112.8 601C75.3 601 37.7 601 18.8 601L0 601Z" fill="#ffffff" stroke-linecap="round" stroke-linejoin="miter"></path></svg>
